<svg xmlns="http://www.w3.org/2000/svg" viewBox="0 0 331.96 363.61"><title>logo</title><path d="M59.88,87.69c3.18-16,9.25-30.77,19.35-43.77C95.9,22.47,117.55,8.62,144.35,2.75c3-.66,6-1.22,9.05-1.82a16.68,16.68,0,0,1,5.93-.74c7.7-.07,15.45-.61,23.09.51,10.17,1.5,20.32,3.22,29.72,7.66,5.06,2.62,10.31,4.89,15.1,8a133.64,133.64,0,0,1,20.54,16c2.23,2.2,4.36,4.51,6.51,6.79,1,1.58,2.49,2.83,3.56,4.39,1.27,2,3.37,3.49,3.89,6a13.68,13.68,0,0,1-.15,1.42c.49,4.39-1.76,7-5.52,9-5.2,2.67-10,6-15.26,8.61a10.05,10.05,0,0,1-6.08,1.32,5.17,5.17,0,0,1-1.7-.65,33.12,33.12,0,0,1-4.2-4.09c-2.67-3.7-6.58-6.1-9.91-9.1-4.61-4-10.28-6-15.72-8.48A17.21,17.21,0,0,1,199.92,46c-3.65-1.87-7.66-2.65-11.57-3.75-3.19-1.31-6.71-.92-10-1.83a46.24,46.24,0,0,0-15.48-.35,86.48,86.48,0,0,0-21.32,4.8c-14.9,5.76-27.47,14.55-36.52,27.76a58.53,58.53,0,0,0-9.58,25.77c-.73,5.47-1.84,10.92-1.5,16.5-.07,21.78,0,43.55,0,65.33a4.26,4.26,0,0,1-.25,1.73c-.66,1.22-1.64,1.26-2.77.73-3.72-2.77-6.25-6.61-9.21-10.07-1.56-1.81-3-3.73-4.49-5.62a97.46,97.46,0,0,1-9.36-15.64,70.33,70.33,0,0,1-4.83-12,9.52,9.52,0,0,0-1.26-2.84,35.46,35.46,0,0,1-2-10.59,112.86,112.86,0,0,1-1.69-22.4C58.24,98.23,58.38,92.88,59.88,87.69Z" fill="#fff"/><path d="M173,178.47c20.15-.68,37.71-7.57,52.4-21.32,1.12-1.05,2.17-2.16,3.25-3.25,2.74-1.64,5.6-1,8.05.27,6,3.17,12,6.36,17.8,9.8a5.31,5.31,0,0,1,1.29,1.3,4.79,4.79,0,0,1,.74,2,7.59,7.59,0,0,1,0,1.43,5.08,5.08,0,0,1-.7,2c-.39.6-.79,1.19-1.19,1.79-11.13,13.46-24.47,24.07-40.73,31a114.18,114.18,0,0,1-36.24,8.83c-.66.05-1.27.28-1.91.39a113.82,113.82,0,0,1-22.59-1c-5.38-.76-10.72-1.71-16-2.75-4.5-.13-8.05-2.82-12-4.41-.81-.32-1.56-.85-2.41-1.13-2.33-1-4.39-2.56-6.61-3.8a6.89,6.89,0,0,1-1.49-.8,10.3,10.3,0,0,0-2.21-1.54,13.07,13.07,0,0,1-3-3.08,12.18,12.18,0,0,1-.87-5.17c0-11.73-.14-23.47.06-35.2.23-13.25.44-26.5.52-39.75,0-3.17.31-6.39.59-9.58a9.69,9.69,0,0,1,6.4-5.85,156.59,156.59,0,0,1,26.42-1.12,12.58,12.58,0,0,1,3.08.68,2.49,2.49,0,0,1,1.09.83,8.26,8.26,0,0,1,.91,4.36c.18,20.87,0,41.73.1,62.59,0,2.38-.18,4.84,1.42,6.92a13.93,13.93,0,0,0,2.17,1.57,12.6,12.6,0,0,0,2.79,1.47c.59.21,1.2.36,1.79.56A37.5,37.5,0,0,0,173,178.47Z" fill="#fff"/><path d="M120.2,89.5a5,5,0,0,1,1.58-4.15,77.69,77.69,0,0,1,23.8-17.74c1.09-.51,2.2-1.19,3.38-.17a3.42,3.42,0,0,1,.67,1.9c0,.81,0,1.62,0,2.44s0,1.38,0,2.08c.11,1,0,2,0,3,.12,3.51.09,7,0,10.53s-1,4.34-4.58,4.39c-3.39.05-6.79,0-10.18,0-2.55-.18-5.1-.06-7.64,0-.71-.09-1.42,0-2.12-.06s-1.62,0-2.43-.08A3.33,3.33,0,0,1,120.2,89.5Z" fill="#f6a92e"/><path d="M25.56,300.14a28.06,28.06,0,0,1-10.15-1.79A23.56,23.56,0,0,1,1.92,285.51a25.87,25.87,0,0,1,0-19.56,23.34,23.34,0,0,1,5.4-7.75,24.24,24.24,0,0,1,8.12-5.09,28.21,28.21,0,0,1,10.18-1.79,27.88,27.88,0,0,1,11.1,2.13A21.5,21.5,0,0,1,45,259.68l-7,6.48A16.39,16.39,0,0,0,32.64,262a15.19,15.19,0,0,0-6.48-1.38,16.58,16.58,0,0,0-6.07,1.08,13.75,13.75,0,0,0-4.78,3.1,14.09,14.09,0,0,0-3.14,4.79,17.51,17.51,0,0,0,0,12.27,14.19,14.19,0,0,0,3.14,4.79,13.9,13.9,0,0,0,4.78,3.1,16.58,16.58,0,0,0,6.07,1.08,15,15,0,0,0,6.48-1.39A16.08,16.08,0,0,0,38,285.24l7,6.47A21.7,21.7,0,0,1,36.72,298,27.7,27.7,0,0,1,25.56,300.14Z" fill="#fff"/><path d="M63.65,299.33V280.05l2.5,6.61L45.38,252.13H57l15.91,26.5H66.22l16-26.5H92.92L72.15,286.66l2.43-6.61v19.28Z" fill="#fff"/><path d="M88.4,299.33l21-47.2h10.79l21.1,47.2H129.87l-17.26-41.67h4.31L99.6,299.33Zm10.52-10.11,2.9-8.3H126.1l3,8.3Z" fill="#fff"/><path d="M146.26,299.33v-47.2h9l27.85,34h-4.38v-34h10.79v47.2h-9l-27.92-34h4.39v34Z" fill="#fff"/><path d="M194.54,299.33l21-47.2h10.78l21.11,47.2H236l-17.27-41.67h4.32l-17.33,41.67Zm10.52-10.11,2.9-8.3h24.27l3,8.3Z" fill="#fff"/><path d="M267.9,300.14A38.66,38.66,0,0,1,257,298.63a25.62,25.62,0,0,1-8.36-3.95l3.71-8.23a27.17,27.17,0,0,0,7.18,3.54,26.23,26.23,0,0,0,8.4,1.39,17.64,17.64,0,0,0,5.22-.64,6.18,6.18,0,0,0,2.94-1.79,4,4,0,0,0,.94-2.63,3.55,3.55,0,0,0-1.48-3,12.16,12.16,0,0,0-3.91-1.82q-2.43-.71-5.36-1.35c-2-.43-3.91-1-5.87-1.59a24.24,24.24,0,0,1-5.36-2.42,12.1,12.1,0,0,1-4-3.91,11.57,11.57,0,0,1-1.51-6.21,13.15,13.15,0,0,1,2.19-7.38,15,15,0,0,1,6.61-5.33,27.13,27.13,0,0,1,11.09-2,37,37,0,0,1,8.77,1.05,25.33,25.33,0,0,1,7.62,3.13l-3.38,8.3a28.73,28.73,0,0,0-6.6-2.8,24.28,24.28,0,0,0-6.48-.91,15.43,15.43,0,0,0-5.19.74,6.18,6.18,0,0,0-2.9,1.92,4.5,4.5,0,0,0-.88,2.73,3.51,3.51,0,0,0,1.49,2.94,11.75,11.75,0,0,0,3.91,1.78c1.62.45,3.4.9,5.36,1.35s3.91,1,5.87,1.55a23,23,0,0,1,5.36,2.36,12.07,12.07,0,0,1,3.94,3.91,11.43,11.43,0,0,1,1.52,6.14,12.71,12.71,0,0,1-2.23,7.28,15.58,15.58,0,0,1-6.64,5.33A26.8,26.8,0,0,1,267.9,300.14Z" fill="#fff"/><path d="M306.27,290.57H332v8.76H295.41v-47.2h35.67v8.77H306.27Zm-.81-19.42h22.72v8.49H305.46Z" fill="#fff"/><path d="M42.26,363.09v-30h7v30Z" fill="#f6a92e"/><path d="M56.34,363.09v-30h5.75l17.72,21.63H77V333.05h6.87v30H78.18L60.42,341.46H63.2v21.63Z" fill="#f6a92e"/><path d="M99.85,363.09l-13-30H94.4l11.33,26.61h-4.42l11.5-26.61h6.91l-13,30Z" fill="#f6a92e"/><path d="M129.11,357.51h16.35v5.58H122.21v-30h22.7v5.58h-15.8Zm-.51-12.35h14.46v5.4H128.6Z" fill="#f6a92e"/><path d="M160.87,363.61a24.65,24.65,0,0,1-6.91-1,16.07,16.07,0,0,1-5.32-2.51L151,354.9a17.55,17.55,0,0,0,4.57,2.25,16.7,16.7,0,0,0,5.34.88,11.25,11.25,0,0,0,3.33-.41,3.85,3.85,0,0,0,1.86-1.14,2.54,2.54,0,0,0,.6-1.67,2.26,2.26,0,0,0-.94-1.91,7.8,7.8,0,0,0-2.49-1.16c-1-.3-2.16-.58-3.41-.86a36.86,36.86,0,0,1-3.73-1,15.6,15.6,0,0,1-3.41-1.54,7.56,7.56,0,0,1-2.51-2.49,7.27,7.27,0,0,1-1-3.95,8.35,8.35,0,0,1,1.39-4.69,9.52,9.52,0,0,1,4.21-3.39,17.11,17.11,0,0,1,7.06-1.27,23.79,23.79,0,0,1,5.58.66,16.27,16.27,0,0,1,4.85,2l-2.15,5.28A17.89,17.89,0,0,0,166,338.7a15.27,15.27,0,0,0-4.11-.58,9.89,9.89,0,0,0-3.31.47,3.83,3.83,0,0,0-1.84,1.22,2.79,2.79,0,0,0-.56,1.74,2.24,2.24,0,0,0,.94,1.87,7.39,7.39,0,0,0,2.49,1.13c1,.29,2.17.58,3.41.86s2.49.62,3.74,1a14.4,14.4,0,0,1,3.41,1.5,7.66,7.66,0,0,1,2.51,2.49,7.27,7.27,0,0,1,1,3.9,8.15,8.15,0,0,1-1.41,4.64,10,10,0,0,1-4.23,3.39A17,17,0,0,1,160.87,363.61Z" fill="#f6a92e"/><path d="M184.17,363.09V338.72h-9.61v-5.67h26.17v5.67h-9.61v24.37Z" fill="#f6a92e"/><path d="M218.63,363.61a18.33,18.33,0,0,1-6.59-1.16,15.63,15.63,0,0,1-5.24-3.26,15,15,0,0,1-3.43-4.94,16.26,16.26,0,0,1,0-12.36,14.83,14.83,0,0,1,3.46-4.93,15.78,15.78,0,0,1,5.23-3.26,19,19,0,0,1,13.07,0,15.61,15.61,0,0,1,5.19,3.26,15.65,15.65,0,0,1,3.45,17.31,14.87,14.87,0,0,1-3.45,4.94,15.72,15.72,0,0,1-5.19,3.24A17.88,17.88,0,0,1,218.63,363.61Zm0-5.93a9.81,9.81,0,0,0,3.72-.68,9,9,0,0,0,5-5,11.09,11.09,0,0,0,0-7.81,9.16,9.16,0,0,0-2-3.05,8.57,8.57,0,0,0-3-2,10,10,0,0,0-3.74-.69,9.76,9.76,0,0,0-3.71.69,8.76,8.76,0,0,0-3,2,9.08,9.08,0,0,0-2,3.05,10.38,10.38,0,0,0-.7,3.9,10.51,10.51,0,0,0,.7,3.89,9.13,9.13,0,0,0,2,3.06,8.64,8.64,0,0,0,3,2A9.9,9.9,0,0,0,218.58,357.68Z" fill="#f6a92e"/><path d="M240.25,363.09v-30h13a17,17,0,0,1,6.95,1.31,10.26,10.26,0,0,1,4.5,3.76A10.45,10.45,0,0,1,266.3,344a10.27,10.27,0,0,1-1.59,5.77,10.12,10.12,0,0,1-4.5,3.72,17.32,17.32,0,0,1-6.95,1.28h-9.14l3.08-3v11.41Zm6.95-10.64-3.08-3.26h8.75a7.14,7.14,0,0,0,4.81-1.4,5.48,5.48,0,0,0,0-7.7,7.25,7.25,0,0,0-4.81-1.37h-8.75l3.08-3.31Zm12.15,10.64-7.51-10.9h7.42l7.6,10.9Z" fill="#f6a92e"/><path d="M281.66,363.61a24.7,24.7,0,0,1-6.91-1,16.16,16.16,0,0,1-5.32-2.51l2.36-5.23a17.55,17.55,0,0,0,4.57,2.25,16.7,16.7,0,0,0,5.34.88,11.16,11.16,0,0,0,3.33-.41,3.88,3.88,0,0,0,1.87-1.14,2.54,2.54,0,0,0,.6-1.67,2.27,2.27,0,0,0-.95-1.91,7.8,7.8,0,0,0-2.49-1.16c-1-.3-2.16-.58-3.41-.86a36.86,36.86,0,0,1-3.73-1,15.81,15.81,0,0,1-3.41-1.54,7.56,7.56,0,0,1-2.51-2.49,7.27,7.27,0,0,1-1-3.95,8.36,8.36,0,0,1,1.4-4.69,9.49,9.49,0,0,1,4.2-3.39,17.15,17.15,0,0,1,7.06-1.27,23.79,23.79,0,0,1,5.58.66,16.17,16.17,0,0,1,4.85,2L291,340.48a18,18,0,0,0-4.2-1.78,15.34,15.34,0,0,0-4.12-.58,9.89,9.89,0,0,0-3.31.47,3.88,3.88,0,0,0-1.84,1.22,2.85,2.85,0,0,0-.56,1.74,2.25,2.25,0,0,0,.95,1.87,7.24,7.24,0,0,0,2.48,1.13c1,.29,2.17.58,3.42.86s2.48.62,3.73,1a14.4,14.4,0,0,1,3.41,1.5,7.56,7.56,0,0,1,2.51,2.49,7.27,7.27,0,0,1,1,3.9,8.16,8.16,0,0,1-1.42,4.64,9.87,9.87,0,0,1-4.23,3.39A17,17,0,0,1,281.66,363.61Z" fill="#f6a92e"/></svg>