<svg xmlns="http://www.w3.org/2000/svg" width="24" height="24" viewBox="0 0 24 24"><g transform="translate(2.5 2)"><path d="M1.2,18.287A4.93,4.93,0,0,1,.183,13.739a.768.768,0,1,1,1.52.22,4.064,4.064,0,0,0,.659,3.323,4.2,4.2,0,0,0,3.172,1.142h8.012c1.59,0,2.688-.334,3.259-1.028a4.4,4.4,0,0,0,.572-3.437l-.747-5.81c-.264-1.407-1.081-2.286-2.187-2.286h-9.8c-1.054,0-1.871.879-2.2,2.347L2.23,9.5A.773.773,0,0,1,.71,9.238L.93,7.919c.58-2.681,2.293-3.56,3.707-3.56h8.24a3.438,3.438,0,0,0-1.089-2.021A3.372,3.372,0,0,0,7.026,2.6v.088A.774.774,0,0,1,5.893,1.634a4.919,4.919,0,0,1,8.548,2.724c1.475,0,3.224.879,3.707,3.516l.755,5.872a5.789,5.789,0,0,1-.967,4.659c-.878,1.046-2.318,1.556-4.392,1.556h-8A4.924,4.924,0,0,1,1.2,18.287Zm10.813-8.258a.881.881,0,0,1-.387-.483.735.735,0,0,1-.061-.334.58.58,0,0,1,0-.176V8.869l.087-.149a.388.388,0,0,1,.106-.132l.131-.114a.686.686,0,0,1,.158-.079.6.6,0,0,1,.167-.052.761.761,0,0,1,.343,0,1.12,1.12,0,0,1,.325.131,1.259,1.259,0,0,1,.238.247.346.346,0,0,1,.078.149.522.522,0,0,1,.053.167.58.58,0,0,1,0,.176.738.738,0,0,1-.07.334.7.7,0,0,1-.211.29.882.882,0,0,1-.616.264A1.063,1.063,0,0,1,12.008,10.029ZM6.166,9.835a.871.871,0,0,1-.194-.29.883.883,0,0,1-.062-.334.58.58,0,0,1,0-.176.522.522,0,0,1,.053-.167.5.5,0,0,1,.079-.149.4.4,0,0,1,.105-.132.593.593,0,0,1,.131-.105A.5.5,0,0,1,6.429,8.4.543.543,0,0,1,6.6,8.349a.761.761,0,0,1,.343,0,.545.545,0,0,1,.167.053.5.5,0,0,1,.149.079A.592.592,0,0,1,7.4,8.6a.4.4,0,0,1,.105.131.865.865,0,0,1,.088.15l.052.166a.953.953,0,0,1,0,.176.857.857,0,0,1-1.475.616Z" fill="#200e32"/></g></svg>