<svg xmlns="http://www.w3.org/2000/svg" width="24" height="24" viewBox="0 0 24 24"><g transform="translate(2 2)"><path d="M6.253,20C2.392,20,0,17.608,0,13.756v-7.5C0,2.392,2.392,0,6.253,0h7.493C17.59,0,20,2.392,20,6.253V8.575a.764.764,0,0,1-.765.765h-.009a.756.756,0,0,1-.756-.774V6.253c0-3.043-1.68-4.723-4.723-4.723H6.253C3.2,1.53,1.53,3.21,1.53,6.253v7.5c0,3.043,1.68,4.714,4.723,4.714h7.493c3.052,0,4.723-1.68,4.723-4.714a.765.765,0,1,1,1.53,0C20,17.608,17.608,20,13.756,20ZM5.7,15.479a.765.765,0,0,1-.738-.791v-6.4a.757.757,0,0,1,.791-.731.766.766,0,0,1,.739.792V14.74a.765.765,0,0,1-.765.739ZM9.27,14.7V5.321a.765.765,0,1,1,1.53,0V14.7a.765.765,0,1,1-1.53,0Zm4.239-.009V11.7a.765.765,0,0,1,1.531,0v2.991a.765.765,0,0,1-1.531,0ZM9.27,5.277v.044Z" fill="#200e32"/></g></svg>