<svg xmlns="http://www.w3.org/2000/svg" width="24" height="24" viewBox="0 0 24 24"><g transform="translate(2 2.5)"><path d="M12.476,15.286a3.741,3.741,0,0,1,3.762-3.713,3.817,3.817,0,0,1,.84.093.87.87,0,0,1,.666,1.041.884.884,0,0,1-1.057.656,2.025,2.025,0,0,0-2.447,1.923,2,2,0,0,0,4,0,1.955,1.955,0,0,0-.027-.328.873.873,0,0,1,.725-1,.882.882,0,0,1,1.015.716,3.648,3.648,0,0,1,.051.615,3.762,3.762,0,0,1-7.524,0Zm-11.594.87a.871.871,0,1,1,0-1.742H8.117a.871.871,0,1,1,0,1.742ZM0,3.713A3.637,3.637,0,0,1,.052,3.1a.881.881,0,0,1,1.015-.716.873.873,0,0,1,.725,1,2.063,2.063,0,0,0-.027.328A2,2,0,1,0,3.318,1.791a.88.88,0,0,1-1.06-.651A.869.869,0,0,1,2.918.1,3.765,3.765,0,0,1,7.525,3.713,3.742,3.742,0,0,1,3.763,7.428,3.743,3.743,0,0,1,0,3.713Zm11.884.871a.871.871,0,1,1,0-1.742h7.234a.871.871,0,1,1,0,1.742Z" fill="#200e32"/></g></svg>