<svg xmlns="http://www.w3.org/2000/svg" width="24" height="24" viewBox="0 0 24 24"><g transform="translate(2 2)"><path d="M5.641,20C2.267,20,0,17.632,0,14.107V5.893C0,2.368,2.267,0,5.641,0h8.717C17.733,0,20,2.368,20,5.893v2.37a.7.7,0,1,1-1.4,0V5.893c0-2.733-1.666-4.5-4.245-4.5H5.641c-2.579,0-4.246,1.764-4.246,4.5v8.213c0,2.733,1.667,4.5,4.246,4.5h8.717c2.579,0,4.246-1.764,4.246-4.5V13.022c-.152-.126-.307-.261-.464-.4-1.1-.951-2.236-1.933-3.477-1.646-.867.2-1.351.916-1.911,1.743a6.164,6.164,0,0,1-1.79,1.951c-1.205.746-2.477.191-3.406-.216L7.4,14.391a2.112,2.112,0,0,0-2.683.349.7.7,0,0,1-.99-.983,3.475,3.475,0,0,1,4.23-.647l.158.069c.923.4,1.57.645,2.113.308A5.046,5.046,0,0,0,11.6,11.939a4.667,4.667,0,0,1,2.75-2.32c1.932-.45,3.47.882,4.705,1.949.234.2.462.4.684.579a.7.7,0,0,1,.262.544v1.415C20,17.632,17.732,20,14.358,20ZM4.3,6.78a2.558,2.558,0,1,1,2.558,2.56A2.561,2.561,0,0,1,4.3,6.78Zm1.395,0A1.163,1.163,0,1,0,6.854,5.618,1.163,1.163,0,0,0,5.691,6.78Z" fill="#200e32"/></g></svg>