<svg xmlns="http://www.w3.org/2000/svg" width="24" height="24" viewBox="0 0 24 24"><g transform="translate(4 2)"><path d="M7.3,19.28V16.45a.712.712,0,0,1,.7-.72,6.673,6.673,0,0,0,6.593-6.737.7.7,0,1,1,1.408,0,8.118,8.118,0,0,1-7.3,8.14V19.28a.7.7,0,1,1-1.408,0ZM4.455,16.324A8.15,8.15,0,0,1,0,8.994a.712.712,0,0,1,.7-.72.713.713,0,0,1,.7.72A6.72,6.72,0,0,0,5.08,15.036.726.726,0,0,1,5.4,16a.7.7,0,0,1-.631.4A.675.675,0,0,1,4.455,16.324Zm3.42-2.932a4.362,4.362,0,0,1-4.309-4.4V4.4A4.362,4.362,0,0,1,7.875,0h.248a4.363,4.363,0,0,1,4.311,4.4V8.987a4.363,4.363,0,0,1-4.311,4.4ZM4.973,4.4V8.987a2.938,2.938,0,0,0,2.9,2.965h.248a2.938,2.938,0,0,0,2.9-2.965V4.4a2.938,2.938,0,0,0-2.9-2.965H7.875A2.938,2.938,0,0,0,4.973,4.4Z" fill="#200e32"/></g></svg>