<svg xmlns="http://www.w3.org/2000/svg" width="24" height="24" viewBox="0 0 24 24"><g transform="translate(2 3)"><path d="M8.58,18a.749.749,0,1,1,0-1.5h7.059A2.864,2.864,0,0,0,18.5,13.642V7.713a2.864,2.864,0,0,0-2.862-2.859,1.718,1.718,0,0,1-1.548-.979c-.314-.665-.655-1.385-.859-1.788a.93.93,0,0,0-.889-.588H7.653a.928.928,0,0,0-.884.589c-.2.391-.526,1.084-.8,1.663l-.059.124a1.719,1.719,0,0,1-1.548.979A2.864,2.864,0,0,0,1.5,7.713v5.929A2.864,2.864,0,0,0,4.363,16.5h.745a.749.749,0,1,1,0,1.5H4.363A4.365,4.365,0,0,1,0,13.642V7.713A4.365,4.365,0,0,1,4.363,3.355a.211.211,0,0,0,.192-.121l.059-.124c.279-.592.614-1.3.816-1.7A2.425,2.425,0,0,1,7.646,0h4.7a2.426,2.426,0,0,1,2.221,1.409c.209.411.557,1.147.841,1.751.071.148.146.2.229.2A4.365,4.365,0,0,1,20,7.713v5.929A4.365,4.365,0,0,1,15.638,18ZM10,14.254a3.928,3.928,0,0,1-3.74-5.121.75.75,0,0,1,1.43.454,2.383,2.383,0,0,0-.115.733A2.435,2.435,0,0,0,10,12.756h0a2.419,2.419,0,0,0,1.724-.723,2.376,2.376,0,0,0,.7-1.7A2.438,2.438,0,0,0,10,7.895h0a2.475,2.475,0,0,0-.529.057.748.748,0,1,1-.327-1.461A3.836,3.836,0,0,1,10,6.4h0a3.936,3.936,0,0,1,3.928,3.931,3.857,3.857,0,0,1-1.139,2.762A3.91,3.91,0,0,1,10,14.254Zm4.923-6.5a.745.745,0,0,1-.22-.528.7.7,0,0,1,.06-.279,1.081,1.081,0,0,1,.16-.25,1.055,1.055,0,0,1,.25-.161.807.807,0,0,1,.57,0,.832.832,0,0,1,.24.161.88.88,0,0,1,.17.25.7.7,0,0,1,.059.279.718.718,0,0,1-.229.528.8.8,0,0,1-.24.17.7.7,0,0,1-.29.051A.743.743,0,0,1,14.92,7.752Z" fill="#200e32"/></g></svg>