<svg xmlns="http://www.w3.org/2000/svg" width="24" height="24" viewBox="0 0 24 24"><g transform="translate(2 2)"><path d="M5.658,20C2.273,20,0,17.629,0,14.1a.738.738,0,0,1,1.476,0c0,2.69,1.641,4.427,4.182,4.427h8.678c2.543,0,4.185-1.737,4.185-4.427V10.146a.737.737,0,0,1,1.474,0V14.1c0,3.529-2.273,5.9-5.659,5.9ZM6,14.658A.739.739,0,0,1,5.26,13.9l.094-3.71a2.859,2.859,0,0,1,.84-1.957L13.543.9A3.086,3.086,0,0,1,17.9.9l1.2,1.2a3.072,3.072,0,0,1,0,4.351l-7.384,7.373a2.853,2.853,0,0,1-2.03.84Zm1.24-5.379a1.389,1.389,0,0,0-.41.952l-.073,2.954H9.683a1.39,1.39,0,0,0,.987-.408l7.385-7.372a1.606,1.606,0,0,0,0-2.268l-1.2-1.2a1.61,1.61,0,0,0-2.272,0l-.606.6,1.875,1.871a.738.738,0,0,1-1.044,1.042L12.938,3.587ZM0,9.707V5.938C0,2.409,2.274.038,5.658.038H9.336a.736.736,0,1,1,0,1.472H5.658c-2.541,0-4.182,1.738-4.182,4.428V9.707A.738.738,0,0,1,0,9.707Z" fill="#200e32"/></g></svg>