<svg xmlns="http://www.w3.org/2000/svg" width="24" height="24" viewBox="0 0 24 24"><g transform="translate(22 2) rotate(90)"><path d="M6.256,20C2.393,20,0,17.608,0,13.747v-7.5C0,2.41,2.393,0,6.253,0H8.822a.756.756,0,0,1,.756.756V.765H9.561A.765.765,0,0,1,8.8,1.53H6.253C3.2,1.53,1.53,3.2,1.53,6.244v7.5c0,3.046,1.68,4.726,4.723,4.726h7.5c3.034,0,4.714-1.679,4.714-4.723v-7.5c0-3.043-1.68-4.714-4.714-4.714a.765.765,0,0,1,0-1.53C17.608,0,20,2.392,20,6.244v7.5C20,17.608,17.608,20,13.756,20ZM10,14.837a.746.746,0,0,1-.286-.058.733.733,0,0,1-.243-.162h0L5.721,10.851A.75.75,0,0,1,6.783,9.793L9.25,12.27V5.914a.75.75,0,0,1,1.5,0v8.172a.759.759,0,0,1-.059.288.731.731,0,0,1-.163.243c-.007.008-.016.01-.023.017a.773.773,0,0,1-.22.144.757.757,0,0,1-.251.051c-.013,0-.022.007-.035.007Zm1.941-2.7a.749.749,0,0,1,0-1.06l1.278-1.284a.75.75,0,0,1,1.062,1.059L13,12.136a.75.75,0,0,1-1.061,0Z" fill="#200e32"/></g></svg>