<svg xmlns="http://www.w3.org/2000/svg" width="24" height="24" viewBox="0 0 24 24"><g transform="translate(2 2)"><path d="M6.909,19.987a.718.718,0,0,1-.694-.74.734.734,0,0,1,.735-.7q.477.015.971.014c4.306,0,6.49-.751,6.49-2.235s-2.183-2.254-6.49-2.254-6.491.752-6.491,2.234c0,.485.171,1.188,1.659,1.694a.718.718,0,0,1-.459,1.361C.456,18.625,0,17.3,0,16.31c0-3.29,4.521-3.67,7.922-3.67,1.958,0,7.921,0,7.921,3.69,0,3.289-4.521,3.67-7.921,3.67C7.579,20,7.24,20,6.909,19.987Zm9.557-9.193V9.538H15.178a.75.75,0,0,1,0-1.5h1.289V6.784a.747.747,0,1,1,1.495,0V8.039h1.292a.75.75,0,0,1,0,1.5H17.961v1.255a.747.747,0,1,1-1.495,0ZM2.588,5.354a5.334,5.334,0,1,1,5.333,5.354A5.35,5.35,0,0,1,2.588,5.354Zm1.431,0a3.9,3.9,0,1,0,3.9-3.917A3.914,3.914,0,0,0,4.019,5.354Z" fill="#200e32"/></g></svg>