<svg xmlns="http://www.w3.org/2000/svg" width="24" height="24" viewBox="0 0 24 24"><g transform="translate(2 2)"><path d="M8.78,18.985a.751.751,0,0,1,.751-.751l6.2,0a2.219,2.219,0,0,0,1.932-.823,3.11,3.11,0,0,0,.633-1.693c.031-.553.185-2.3.185-2.3a.743.743,0,0,1,1.484.058c0,.023-.141,1.789-.173,2.334a4.569,4.569,0,0,1-.974,2.561,3.733,3.733,0,0,1-3.085,1.365l-6.2,0A.75.75,0,0,1,8.78,18.985Zm-4.52.748a3.73,3.73,0,0,1-3.086-1.366A4.557,4.557,0,0,1,.2,15.806C.168,15.262.027,13.5.027,13.473a.743.743,0,0,1,1.484-.057s.154,1.749.187,2.3a3.091,3.091,0,0,0,.631,1.692,2.217,2.217,0,0,0,1.933.824H5.4a.75.75,0,1,1,0,1.5Zm4.984-5.055V13.383a.75.75,0,0,1,1.5,0v1.294a.75.75,0,1,1-1.5,0Zm2.5-2.126A1.8,1.8,0,0,0,9.99,11.2a1.828,1.828,0,0,0-1.779,1.356.748.748,0,0,1-.716.554.763.763,0,0,1-.111-.008A17.148,17.148,0,0,1,.337,10.481.75.75,0,0,1,0,9.855V6.388A3.817,3.817,0,0,1,3.817,2.581H5.77A2.964,2.964,0,0,1,8.7,0h2.582A2.964,2.964,0,0,1,14.22,2.581h1.963A3.812,3.812,0,0,1,19.99,6.388V9.855a.752.752,0,0,1-.336.626,17.158,17.158,0,0,1-7.078,2.629.761.761,0,0,1-.1.006A.749.749,0,0,1,11.746,12.551Zm1.213-1.02A15.725,15.725,0,0,0,18.49,9.445V6.388a2.31,2.31,0,0,0-2.307-2.308H10a.75.75,0,1,1,0-1.5h2.7A1.462,1.462,0,0,0,11.286,1.5H8.7A1.46,1.46,0,0,0,7.245,2.958v.37a.748.748,0,0,1-.75.751l-2.678,0A2.315,2.315,0,0,0,1.5,6.388V9.445a15.673,15.673,0,0,0,5.511,2.078A3.336,3.336,0,0,1,9.99,9.7,3.288,3.288,0,0,1,12.959,11.532Z" transform="translate(0 0)" fill="#200e32"/></g></svg>