<svg xmlns="http://www.w3.org/2000/svg" width="24" height="24" viewBox="0 0 24 24"><g transform="translate(1 3.5)"><path d="M10.308,16.3a.694.694,0,0,1,.692-.7c2.443,0,5.356-.313,5.356-1.8,0-1.186-1.8-1.786-5.356-1.786-2.443,0-5.355.312-5.355,1.8,0,.332.1.76.853,1.132a5.118,5.118,0,0,0,1.167.381A.7.7,0,0,1,7.377,16.7a6.575,6.575,0,0,1-1.489-.491,2.574,2.574,0,0,1-1.628-2.383c0-3.2,5.072-3.2,6.739-3.2,1.844,0,6.74,0,6.74,3.179C17.74,17,12.668,17,11,17A.7.7,0,0,1,10.308,16.3Zm8.467-2.085a.7.7,0,0,1,.539-.823c.944-.2,1.177-.492,1.233-.611a.693.693,0,0,0,0-.6c-.118-.25-.577-.476-1.229-.606a9.063,9.063,0,0,0-1.341-.2A.7.7,0,0,1,18.069,10a10.223,10.223,0,0,1,1.534.221A2.855,2.855,0,0,1,21.8,11.588a2.085,2.085,0,0,1,0,1.8,2.891,2.891,0,0,1-2.2,1.376.621.621,0,0,1-.14.015A.694.694,0,0,1,18.775,14.218Zm-16.362.535A2.892,2.892,0,0,1,.2,13.374a2.091,2.091,0,0,1,0-1.8A2.865,2.865,0,0,1,2.417,10.2a10.04,10.04,0,0,1,1.52-.219.7.7,0,0,1,.094,1.389,8.737,8.737,0,0,0-1.328.193c-.671.133-1.13.359-1.25.61a.707.707,0,0,0,0,.6c.058.12.29.418,1.238.614a.7.7,0,0,1-.139,1.377A.74.74,0,0,1,2.413,14.754ZM8.191,8.222a.7.7,0,0,1-.122-.977.688.688,0,0,1,.972-.122A3.156,3.156,0,0,0,11,7.793a3.2,3.2,0,1,0-3.184-3.2.692.692,0,1,1-1.384,0A4.568,4.568,0,1,1,11,9.185,4.517,4.517,0,0,1,8.191,8.222Zm7.8-.714a.694.694,0,0,1,.692-.7,2.234,2.234,0,0,0,0-4.468.7.7,0,0,1,0-1.392,3.627,3.627,0,0,1,0,7.253A.694.694,0,0,1,15.991,7.508ZM1.714,4.548A3.629,3.629,0,0,1,5.328.913a.7.7,0,0,1,0,1.392,2.242,2.242,0,0,0,0,4.484.7.7,0,0,1,0,1.392A3.628,3.628,0,0,1,1.714,4.548Z" fill="#200e32"/></g></svg>