<svg xmlns="http://www.w3.org/2000/svg" width="24" height="24" viewBox="0 0 24 24"><g transform="translate(2 3.5)"><path d="M1.58,16.789a.712.712,0,0,1,0-1.018l5.2-5.116A3.749,3.749,0,0,1,6.1,8.5,3.876,3.876,0,0,1,10,4.659a3.919,3.919,0,0,1,2.191.666l2.034-2a7.712,7.712,0,0,0-9.1.45A12.62,12.62,0,0,0,1.532,8.5a14.426,14.426,0,0,0,1.4,2.43.711.711,0,0,1-.172,1,.738.738,0,0,1-1.021-.169A15.956,15.956,0,0,1,.059,8.784a.707.707,0,0,1,0-.569A14.218,14.218,0,0,1,4.221,2.642a9.23,9.23,0,0,1,11.056-.355L17.385.212a.739.739,0,0,1,1.035,0,.711.711,0,0,1,0,1.019L2.615,16.789a.739.739,0,0,1-1.035,0ZM7.561,8.5a2.324,2.324,0,0,0,.286,1.1L11.12,6.38A2.458,2.458,0,0,0,10,6.1,2.423,2.423,0,0,0,7.561,8.5Zm-.33,7.479a.719.719,0,0,1-.462-.912.736.736,0,0,1,.925-.456A7.369,7.369,0,0,0,10,14.983c3.445,0,6.592-2.417,8.468-6.483a14.169,14.169,0,0,0-1.59-2.67.712.712,0,0,1,.145-1.009.739.739,0,0,1,1.024.142A15.9,15.9,0,0,1,19.94,8.214a.715.715,0,0,1,0,.571c-2.1,4.783-5.813,7.639-9.941,7.639A8.867,8.867,0,0,1,7.231,15.98Zm2.618-4.289a.723.723,0,0,1,.59-.839A2.412,2.412,0,0,0,12.39,8.928a.733.733,0,0,1,.85-.582.72.72,0,0,1,.59.837,3.871,3.871,0,0,1-3.13,3.088.82.82,0,0,1-.132.011A.728.728,0,0,1,9.849,11.691Z" fill="#200e32"/></g></svg>