<svg xmlns="http://www.w3.org/2000/svg" width="24" height="24" viewBox="0 0 24 24"><g transform="translate(3 2)"><path d="M9.191,20a.732.732,0,0,1,0-1.463h0c1.518,0,2.064-.008,3.583-.035a1.494,1.494,0,0,0,1.608-1.526c.3-2.8.832-9.5.836-9.571a.714.714,0,1,1,1.422.118c0,.067-.534,6.792-.84,9.613a2.917,2.917,0,0,1-3,2.828c-1.286.024-1.6.037-2.884.037Zm-4.065-.04a2.915,2.915,0,0,1-2.932-2.817C1.886,14.3,1.36,7.589,1.355,7.521a.727.727,0,0,1,.653-.788.73.73,0,0,1,.769.672c.005.067.53,6.752.836,9.574A1.475,1.475,0,0,0,5.154,18.5a.732.732,0,0,1-.014,1.462ZM.713,4.96a.732.732,0,0,1,0-1.463H3.907a.9.9,0,0,0,.878-.736l.238-1.22A1.99,1.99,0,0,1,6.932,0h4.136a1.977,1.977,0,0,1,1.9,1.494.735.735,0,0,1-.5.9.712.712,0,0,1-.874-.518.542.542,0,0,0-.52-.409H6.932a.542.542,0,0,0-.52.409L6.185,3.046a2.5,2.5,0,0,1-.139.451h11.24a.732.732,0,0,1,0,1.463Z" fill="#200e32"/></g></svg>