<svg xmlns="http://www.w3.org/2000/svg" width="24" height="24" viewBox="0 0 24 24"><g transform="translate(3.5 2)"><path d="M12.353,20H8.942a.75.75,0,1,1,0-1.5h3.411a3.071,3.071,0,0,0,3.092-3.042.67.67,0,0,1,.03-.144V11.169a3.071,3.071,0,0,0-3.092-3.042H4.617a3.071,3.071,0,0,0-3.092,3.042v4.145a.67.67,0,0,1,.03.144A3.071,3.071,0,0,0,4.648,18.5a.75.75,0,1,1,0,1.5l-.021,0-.01,0A4.584,4.584,0,0,1,0,15.458V11.169A4.542,4.542,0,0,1,3.1,6.9V5.3A5.357,5.357,0,0,1,8.49,0h.024A5.386,5.386,0,0,1,13.6,3.567a.747.747,0,0,1-.472.955.765.765,0,0,1-.969-.464A3.861,3.861,0,0,0,8.51,1.5H8.493A3.838,3.838,0,0,0,4.627,5.284V6.627h7.756A4.585,4.585,0,0,1,17,11.169v4.289A4.584,4.584,0,0,1,12.383,20ZM7.738,14.424V12.2a.762.762,0,0,1,1.525,0v2.221a.762.762,0,0,1-1.525,0Z" fill="#200e32"/></g></svg>