<svg xmlns="http://www.w3.org/2000/svg" width="24" height="24" viewBox="0 0 24 24"><g transform="translate(3 3)"><path d="M10.6,18a.788.788,0,0,1,0-1.575h6.624a.788.788,0,0,1,0,1.575ZM1.572,18a.782.782,0,0,1-.76-.609l-.752-3.27A2.355,2.355,0,0,1,.5,12.142l1.13-1.458a.772.772,0,0,1,1.094-.133.792.792,0,0,1,.131,1.105l-1.13,1.458a.773.773,0,0,0-.142.651l.61,2.652,2.7-.034a.755.755,0,0,0,.59-.3l8.61-11.1a1.063,1.063,0,0,0,.228-.907,1.732,1.732,0,0,0-.652-.949L12.218,1.983a1.256,1.256,0,0,0-1.886.028L9.194,3.477,11,4.94a.792.792,0,0,1,.121,1.106.771.771,0,0,1-1.1.122L8.233,4.717l-2.946,3.8a.773.773,0,0,1-1.1.133.8.8,0,0,1-.131-1.106L9.105,1.039a2.779,2.779,0,0,1,4.073-.3l1.444,1.145A3.3,3.3,0,0,1,15.835,3.74a2.65,2.65,0,0,1-.523,2.214L6.7,17.059a2.3,2.3,0,0,1-1.8.9L1.582,18Z" fill="#200e32"/></g></svg>