<svg xmlns="http://www.w3.org/2000/svg" viewBox="0 0 18.09 19.97"><title>net-worth</title><path d="M13.35,5.07A4.31,4.31,0,0,0,9,.75H9a4.32,4.32,0,0,0-4.34,4.3v0h0" fill="none" stroke="#f7a93a" stroke-linecap="round" stroke-linejoin="round" stroke-width="1.5"/><path d="M18,14.41l-.78-6c-.47-2.16-1.81-3.08-3.07-3.08H4c-1.25,0-2.67.85-3.08,3.08l-.78,6C-.55,18.86,1.8,20,4.87,20h8.34C16.28,20,18.57,18.36,18,14.41ZM6.16,10.47a.9.9,0,1,1,.9-.9A.89.89,0,0,1,6.16,10.47Zm5.79,0a.9.9,0,1,1,.9-.9A.9.9,0,0,1,12,10.47Z" fill="#f7a93a"/></svg>