<svg xmlns="http://www.w3.org/2000/svg" viewBox="0 0 383.16 409.55"><title>Asset 1</title><path d="M202.94,407.63c5.9-1.12,11.76-2.3,17.35-4.64,10.59-4.44,16.51-13,16.58-24.57q.12-21.39,0-42.79c0-3.64.76-5.95,4.75-7,4.65-1.23,6.09-5.29,6.41-9.64a160.65,160.65,0,0,1,6.92-37.24,141.24,141.24,0,0,1,20.18-40.21c7.27-10.08,14.3-20.25,18.82-31.94a105.47,105.47,0,0,0,6.84-33.55,95.62,95.62,0,0,0-2.19-23.82c-.82-3.84-3-5.62-5.93-5-2.69.57-4.07,2.9-3.4,6.67,2.32,13.13,2.62,26.2-.41,39.29-3.44,14.83-10.41,27.85-19.52,39.92C252.53,255.33,243,280.49,239.26,308c-.36,2.63-.27,5.31-.87,7.94-.53,2.32-1.79,3.45-4.14,3.48-1.2,0-2.4.07-3.6,0-4.08-.16-4.78-.87-4.94-5-.07-2,0-4-.08-6-.16-2.29-.38-4.74-2.12-6.31-3.12-2.81-3.08-6.1-2.58-9.85,3.34-24.69,6.76-49.37,10-74.08.94-7.28-3.23-11-9.65-7.57-8.65,4.65-16.64,5.24-25.1,0-3.18-2-6.59-1.23-9.93.41-11.46,5.67-8.33,5.46-20.83.61-1.61-.63-3.22-1.3-4.88-1.77-5.33-1.51-9.05,1.56-8.41,7.12.51,4.5,1.09,9,1.81,13.48.77,4.87,1.26,9.78,2,14.66a16.5,16.5,0,0,0,1,4.28c.91,2.12,2.37,3.69,4.86,3.34s3.64-2,3.89-4.43a20.82,20.82,0,0,0-.25-5.57c-.9-5.66-1.62-11.35-2.25-17-.38-3.52.67-4.56,3.77-2.86,7.32,4,13.9,3.2,20.49-1.49,2.84-2,6-1.82,9.11-.21,1.89,1,4,1.59,5.87,2.55,4.06,2,8.1,2.57,12.17.06a5.41,5.41,0,0,1,1.11-.46c3.72-1.26,4.64-.61,4.36,3.25-.51,7.05-1.82,14-2.73,21q-3,22.79-6.16,45.56c-.65,4.6-1.56,5.47-6.15,5.51q-13.41.12-26.8,0c-4.42,0-5.35-.92-6-5.21-.83-5.27-1.2-10.6-2.23-15.83-.82-4.1-2.78-6-5.51-5.52s-4.25,3.2-3.9,6.94c.49,5.31,1.55,10.54,2.06,15.86.18,1.94.2,3.8-1.28,5.21-3.3,3.15-3.93,7.11-3.79,11.38a30.67,30.67,0,0,1-.13,4.79,3.19,3.19,0,0,1-3.11,3.07c-.8.09-1.6.12-2.4.13-6,.12-7-.59-7.56-6.6-2.59-30.19-13.64-57.09-31.57-81.3C103.77,219.48,97,206.45,94,191.65c-5.28-26.65,0-51.18,15.81-73.22,17.19-24,41-37.87,70.09-40.76,41.19-4.11,73.91,11.41,97.15,46a23.78,23.78,0,0,0,2.79,3.89,4.61,4.61,0,0,0,5.86.89c2.23-1.22,2.48-3.31,1.84-5.56a13.91,13.91,0,0,0-1.85-3.54c-18.74-29.45-45.39-46.78-80-51.16C177.6,64.68,151.53,70.71,128.25,87c-25.7,18-41.11,42.55-44.95,73.84C80,187.59,86.7,212,102.51,233.65c11.31,15.53,20.74,32,26.38,50.41a141.83,141.83,0,0,1,6.18,33.74c.31,5.72,2.19,10.14,8.37,11.57,3,.69,2.81,3.18,2.82,5.45,0,10.66-.07,21.33,0,32,.07,5.85-.55,11.73.65,17.55,1.85,9,7.36,14.88,15.58,18.42a81.14,81.14,0,0,0,16.91,4.77c1.26.24,3.13-.16,3.34,2h16.8C199.81,407.37,201.67,407.87,202.94,407.63ZM168.46,312.2c-.17-1.8.36-2.59,2.39-2.58q20.73.11,41.46,0c2,0,2.59.69,2.42,2.54a19.7,19.7,0,0,0,0,4c.27,2.26-.86,2.61-2.79,2.58-6.78-.08-13.55,0-20.33,0s-13.29-.14-19.93.07c-2.72.08-3.58-.84-3.24-3.38A14.79,14.79,0,0,0,168.46,312.2Zm-2.33,18.3c18.79,0,37.58.06,56.37-.06,2.74,0,3.6.59,3.56,3.46-.11,8.94,0,8.94-8.83,8.94H191.65c-10.39,0-20.79-.08-31.18.05-2.53,0-3.39-.53-3.37-3.26C157.16,330.5,157,330.5,166.13,330.5Zm-6.12,24q31.56.24,63.12,0c4.13,0,2.64,2.62,2.82,4.52s.55,3.77-2.8,3.69c-10.65-.26-21.3-.1-32-.1-10.38,0-20.78-.16-31.16.1-3.3.08-3-1.67-2.82-3.67S155.85,354.48,160,354.51Zm8,39c-7.7-2.73-11.14-8.21-10.89-16.58.07-2.36,1.06-2.48,2.89-2.47,10.52.06,21,0,31.55,0s20.77.08,31.15-.06c2.53,0,3.39.53,3.36,3.24-.12,8.36-3.36,13.14-11.22,15.93A68.14,68.14,0,0,1,168,393.48Z"/><path d="M237.89,374.8c0-13.73,0-27.46,0-41.19,0-1.13-.85-2.91,1.29-3.17,8-1,9.59-6.58,10.07-13.41a145.86,145.86,0,0,1,20.32-65.26c5.59-9.4,12.87-17.63,18.3-27.13C301.09,201.56,304.63,177,299.54,151c-.64-3.26-2.66-5.24-6.06-5.26-4,0-6.27,3.49-5.36,8.35q7.83,41.81-17.86,75.69a170,170,0,0,0-14.53,22.41,158.41,158.41,0,0,0-18.23,63.13c-.2,2.74-1.06,3.49-3.79,3.42-7.13-.16-7.14,0-7.14-7,0-1.07,0-2.13,0-3.2,0-3.75-.57-7.24-4.14-9.34-1.41-.83-1-1.91-.88-3.11q5.33-39.18,10.62-78.37c1-7.5-4.36-12.14-10.91-8.4-8.86,5.06-16.94,5.33-25.48-.11a7.07,7.07,0,0,0-8.32.11c-7.92,6.31-15.75,5.09-23.75.4a13.83,13.83,0,0,0-2.22-.87c-6.61-2.39-11.47,1.61-10.51,8.63.49,3.56.95,7.13,1.45,10.69,1,7.11,1.91,14.25,3.1,21.34a5.29,5.29,0,0,0,6.38,4.65c3.28-.46,5.14-2.66,5-6.14-.07-1.73-.27-3.46-.5-5.17-.87-6.58-1.77-13.14-2.66-19.73a3.85,3.85,0,0,1,.95-.09,5,5,0,0,1,1.51.48c7.55,4.77,14.78,3.85,21.75-1.22,2.53-1.85,5-1.89,7.73-.34,7.41,4.13,15,6.81,23,1.35.07-.05.24,0,.37.07s.18.24.17.35c-3.14,23.75-6.33,47.5-9.41,71.25-.31,2.44-1.42,2.92-3.66,2.9-9.73-.12-19.46-.16-29.19,0-2.62.05-3.46-.87-3.73-3.29q-1.05-9.12-2.43-18.21c-.6-4-3.45-6.24-6.8-5.67s-5.29,3.47-4.79,7.52c.72,5.81,1.52,11.61,2.29,17.42.13,1,.9,2.4-.15,3-5.53,3.14-4.75,8.42-4.77,13.44,0,6.62,0,6.47-6.71,6.66-2.93.09-4.06-.58-4.29-3.76a156.79,156.79,0,0,0-11-46.8c-6.29-15.83-15.94-29.64-25.34-43.7-18.71-28-21.74-58.19-8-88.87,23.22-52,86.73-73,137.11-46.29a98.61,98.61,0,0,1,39.38,37.52c2.23,3.76,5.68,4.8,8.69,3s3.61-5.23,1.38-9.11a100.26,100.26,0,0,0-12.59-17.47A112.42,112.42,0,0,0,125,87.92C78.1,122.16,67.5,185.86,100.86,233.28c5.36,7.62,10.86,15.15,15.27,23.38,10.43,19.49,16.7,40.19,17.93,62.35.34,6.17,3,10.28,7.93,11,3.2.47,3.34,1.9,3.32,4.41q-.12,21.79,0,43.6c.05,13.39,6.59,22.23,19.18,26.81,6,2.18,12.31,2.81,18.32,4.73-.21-2.16-2.08-1.76-3.34-2a81.14,81.14,0,0,1-16.91-4.77c-8.22-3.54-13.73-9.43-15.58-18.42-1.2-5.82-.58-11.7-.65-17.55-.11-10.66,0-21.33,0-32,0-2.27.17-4.76-2.82-5.45-6.18-1.43-8.06-5.85-8.37-11.57a141.83,141.83,0,0,0-6.18-33.74c-5.64-18.44-15.07-34.88-26.38-50.41C86.7,212,80,187.59,83.3,160.86c3.84-31.29,19.25-55.84,45-73.84,23.28-16.31,49.35-22.34,77.43-18.79,34.65,4.38,61.3,21.71,80,51.16a13.91,13.91,0,0,1,1.85,3.54c.64,2.25.39,4.34-1.84,5.56a4.61,4.61,0,0,1-5.86-.89,23.78,23.78,0,0,1-2.79-3.89c-23.24-34.63-56-50.15-97.15-46-29.1,2.89-52.9,16.75-70.09,40.76C94.06,140.47,88.75,165,94,191.65c2.93,14.8,9.74,27.83,18.66,39.88,17.93,24.21,29,51.11,31.57,81.3.52,6,1.51,6.72,7.56,6.6.8,0,1.6,0,2.4-.13a3.19,3.19,0,0,0,3.11-3.07,30.67,30.67,0,0,0,.13-4.79c-.14-4.27.49-8.23,3.79-11.38,1.48-1.41,1.46-3.27,1.28-5.21C162,289.53,161,284.3,160.47,279c-.35-3.74,1.24-6.46,3.9-6.94s4.69,1.42,5.51,5.52c1,5.23,1.4,10.56,2.23,15.83.67,4.29,1.6,5.18,6,5.21q13.4.12,26.8,0c4.59,0,5.5-.91,6.15-5.51q3.21-22.77,6.16-45.56c.91-7,2.22-14,2.73-21,.28-3.86-.64-4.51-4.36-3.25a5.41,5.41,0,0,0-1.11.46c-4.07,2.51-8.11,2-12.17-.06-1.91-1-4-1.58-5.87-2.55-3.11-1.61-6.27-1.81-9.11.21-6.59,4.69-13.17,5.48-20.49,1.49-3.1-1.7-4.15-.66-3.77,2.86.63,5.69,1.35,11.38,2.25,17a20.82,20.82,0,0,1,.25,5.57c-.25,2.38-1.47,4.09-3.89,4.43s-3.95-1.22-4.86-3.34a16.5,16.5,0,0,1-1-4.28c-.7-4.88-1.19-9.79-2-14.66-.72-4.48-1.3-9-1.81-13.48-.64-5.56,3.08-8.63,8.41-7.12,1.66.47,3.27,1.14,4.88,1.77,12.5,4.85,9.37,5.06,20.83-.61,3.34-1.64,6.75-2.37,9.93-.41,8.46,5.21,16.45,4.62,25.1,0,6.42-3.45,10.59.29,9.65,7.57-3.22,24.71-6.64,49.39-10,74.08-.5,3.75-.54,7,2.58,9.85,1.74,1.57,2,4,2.12,6.31.13,2,0,4,.08,6,.16,4.17.86,4.88,4.94,5,1.2.05,2.4,0,3.6,0,2.35,0,3.61-1.16,4.14-3.48.6-2.63.51-5.31.87-7.94,3.69-27.49,13.27-52.65,30.05-74.86,9.11-12.07,16.08-25.09,19.52-39.92,3-13.09,2.73-26.16.41-39.29-.67-3.77.71-6.1,3.4-6.67,2.9-.62,5.11,1.16,5.93,5a95.62,95.62,0,0,1,2.19,23.82,105.47,105.47,0,0,1-6.84,33.55c-4.52,11.69-11.55,21.86-18.82,31.94a141.24,141.24,0,0,0-20.18,40.21A160.65,160.65,0,0,0,248,319c-.32,4.35-1.76,8.41-6.41,9.64-4,1-4.78,3.35-4.75,7q.18,21.39,0,42.79c-.07,11.55-6,20.13-16.58,24.57-5.59,2.34-11.45,3.52-17.35,4.64-1.27.24-3.13-.26-3.36,1.92,4.74-1.06,9.52-1.94,14.2-3.19C231.34,401.64,237.89,393,237.89,374.8Z"/><path d="M41.56,185.66q-17.16-.09-34.31,0c-4.63,0-7.37,2.45-7.25,6.13s2.77,5.71,7.21,5.75c5.72.05,11.44,0,17.16,0s11.44,0,17.16,0c4.48,0,7.08-2.15,7.22-5.71C48.9,188.12,46.19,185.69,41.56,185.66Z"/><path d="M376,185.66q-17.16-.09-34.31,0c-4.65,0-7.36,2.42-7.25,6.12s2.73,5.71,7.2,5.75c5.85.06,11.7,0,17.55,0,5.59,0,11.17,0,16.76,0,4.47,0,7.1-2.16,7.24-5.7C383.3,188.15,380.57,185.69,376,185.66Z"/><path d="M56.89,318a7.57,7.57,0,0,0-2.49,5,5.8,5.8,0,0,0,3.39,5.3c2.82,1.31,5.19.36,7.22-1.66,8.3-8.25,16.6-16.5,24.82-24.84,3.17-3.22,3.33-6.52.75-9.13s-6-2.25-9.13.82C73.23,301.55,65.08,309.78,56.89,318Z"/><path d="M301.76,293.46c-3.1-3.08-6.67-3.36-9.13-.93-2.62,2.59-2.5,5.94.66,9.14,8.22,8.34,16.52,16.59,24.82,24.85,1.34,1.32,2.85,2.42,4.93,2.26a5.53,5.53,0,0,0,5.24-3.6c1.11-2.79.11-5.13-2-7.19C318.12,309.83,310,301.6,301.76,293.46Z"/><path d="M65.56,57.26c-3.48-3.45-6.73-3.79-9.4-1.14s-2.32,6.06,1,9.44C61.9,70.4,66.73,75.17,71.53,80c3.58,3.57,7.12,7.18,10.78,10.66a5.93,5.93,0,0,0,10.06-4c-.12-2.41-1.39-3.93-2.82-5.36C81.56,73.24,73.58,65.22,65.56,57.26Z"/><path d="M328,63c2-3.84-.74-8.57-5.9-8.67a4.58,4.58,0,0,0-2.76,1.35c-9.14,9.1-18.32,18.15-27.3,27.4-2.28,2.35-1.66,5.32.59,7.53s4.7,2.25,7.27.64a9.3,9.3,0,0,0,1.57-1.22q12.44-12.4,24.83-24.83A9.53,9.53,0,0,0,328,63Z"/><path d="M197.43,7.18c-.06-4.47-2.24-7.1-5.74-7.18s-5.92,2.6-5.95,7q-.12,17.55,0,35.11c0,4.28,2.22,6.65,5.73,6.72s5.88-2.43,6-6.9c.1-5.85,0-11.7,0-17.55S197.51,12.89,197.43,7.18Z"/></svg>